<svg xmlns="http://www.w3.org/2000/svg" viewBox="0 0 800 900" width="800" height="900">
  <defs>
    <style>
      .box { fill:#1e1e2e; stroke:#555; stroke-width:1.5; rx:8; ry:8; }
      .box-text { fill:#e0e0e0; font-family:monospace; font-size:13px; text-anchor:middle; }
      .arrow { stroke:#888; stroke-width:1.5; fill:none; marker-end:url(#arrowhead); }
      .highlight { fill:#2d2d4d; stroke:#7c7ccc; stroke-width:2; rx:8; ry:8; }
      .title { fill:#bb86fc; font-family:sans-serif; font-size:16px; font-weight:bold; text-anchor:middle; }
      .subtitle { fill:#aaa; font-family:sans-serif; font-size:11px; text-anchor:middle; }
      .label { fill:#888; font-family:monospace; font-size:10px; text-anchor:middle; }
      .risk-high { fill:#cf6679; font-family:monospace; font-size:13px; text-anchor:middle; }
      .risk-mod { fill:#ffb74d; font-family:monospace; font-size:13px; text-anchor:middle; }
    </style>
    <marker id="arrowhead" markerWidth="8" markerHeight="6" refX="8" refY="3" orient="auto"><polygon points="0 0, 8 3, 0 6" fill="#888"/></marker>
    <marker id="arrowhead-blue" markerWidth="8" markerHeight="6" refX="8" refY="3" orient="auto"><polygon points="0 0, 8 3, 0 6" fill="#64b5f6"/></marker>
  </defs>
  <rect width="800" height="900" fill="#121220"/>
  <text x="400" y="30" class="title">Context-Aware Risk Architecture</text>
  <text x="400" y="48" class="subtitle">ErgoVigilance — Week 4 Day 2 Prototype</text>

  <!-- Row 1: Camera -->
  <rect x="300" y="65" width="200" height="44" class="box"/>
  <text x="400" y="84" class="box-text" font-weight="bold">Camera (Webcam)</text>
  <text x="400" y="99" class="label">640x480 or 1280x720 @ 30fps</text>

  <!-- Arrow: Camera -> MediaPipe -->
  <line x1="400" y1="109" x2="400" y2="140" class="arrow"/>

  <!-- Row 2: MediaPipe Pose -->
  <rect x="275" y="143" width="250" height="44" class="box"/>
  <text x="400" y="162" class="box-text" font-weight="bold">MediaPipe Pose Landmarker</text>
  <text x="400" y="177" class="label">33 landmarks (x, y, z, visibility)</text>

  <!-- Arrow: MediaPipe -> Features -->
  <line x1="400" y1="187" x2="400" y2="218" class="arrow"/>

  <!-- Row 3: Feature Extraction (existing) -->
  <rect x="250" y="221" width="300" height="44" class="box"/>
  <text x="400" y="240" class="box-text" font-weight="bold">Feature Extraction (7 angles)</text>
  <text x="400" y="255" class="label">neck, trunk, shoulder, symmetry, alignment, knee</text>

  <!-- Split: right to Task Recognition -->
  <line x1="550" y1="243" x2="680" y2="243" class="arrow"/>
  <line x1="680" y1="243" x2="680" y2="290"/>

  <!-- Task Recognition (right side, existing) -->
  <rect x="580" y="293" width="200" height="60" class="box"/>
  <text x="680" y="315" class="box-text" font-weight="bold">Task Recognition</text>
  <text x="680" y="330" class="label">Gaussian heuristic</text>
  <text x="680" y="343" class="label">5 task profiles</text>

  <!-- Arrow down from Features -> Context Engine -->
  <line x1="400" y1="265" x2="400" y2="296" class="arrow"/>

  <!-- Arrow from Task Rec -> Context Engine -->
  <path d="M 580 323 L 530 323 L 530 323 L 490 323" stroke="#888" stroke-width="1.5" fill="none" marker-end="url(#arrowhead)"/>

  <!-- Row 4: Context-Aware Risk Engine (NEW - highlighted) -->
  <rect x="200" y="300" width="400" height="80" class="highlight"/>
  <text x="400" y="322" class="box-text" font-weight="bold" fill="#bb86fc">Context-Aware Risk Engine</text>
  <text x="400" y="338" class="label" fill="#9988cc">NEW — Week 4 Day 2 Prototype</text>
  <text x="400" y="354" class="label">Base Score + Task Modifier + Duration Penalty + Fatigue + Smoothing</text>
  <text x="400" y="369" class="label">Output: risk_level, final_score, contribution_breakdown</text>

  <!-- Arrow down -->
  <line x1="400" y1="380" x2="400" y2="411" class="arrow"/>

  <!-- Row 5: Issue Detection (existing) -->
  <rect x="250" y="415" width="300" height="44" class="box"/>
  <text x="400" y="434" class="box-text" font-weight="bold">Issue Detection (7 rules)</text>
  <text x="400" y="449" class="label">HIGH / MEDIUM severity per feature</text>

  <!-- Arrow down -->
  <line x1="400" y1="459" x2="400" y2="490" class="arrow"/>

  <!-- Row 6: Recommendation Engine (existing) -->
  <rect x="230" y="493" width="340" height="44" class="box"/>
  <text x="400" y="512" class="box-text" font-weight="bold">Recommendation Engine</text>
  <text x="400" y="527" class="label">Static lookup — worker + supervisor actions</text>

  <!-- Arrow down -->
  <line x1="400" y1="537" x2="400" y2="568" class="arrow"/>

  <!-- Row 7: Dashboard Display -->
  <rect x="200" y="571" width="400" height="60" class="box"/>
  <text x="400" y="593" class="box-text" font-weight="bold">Dashboard Display</text>
  <text x="400" y="608" class="label">OpenCV Panel + Streamlit + React UI</text>
  <text x="400" y="621" class="label">Now includes Context-Aware Risk card</text>

  <!-- Legend -->
  <rect x="50" y="660" width="700" height="220" class="box" stroke="#444" fill="none"/>
  <text x="400" y="682" class="title" font-size="14">Legend</text>

  <rect x="80" y="695" width="120" height="30" class="box"/>
  <text x="140" y="714" class="box-text" font-size="11">Existing Module</text>

  <rect x="80" y="735" width="120" height="30" class="highlight"/>
  <text x="140" y="754" class="box-text" font-size="11" fill="#bb86fc">New Module</text>

  <text x="280" y="710" class="box-text" font-size="11" fill="#888">Flow: Camera -&gt; Pose -&gt; Features -&gt; Context Engine -&gt; Issues -&gt; Recs -&gt; Dashboard</text>
  <text x="280" y="730" class="box-text" font-size="11" fill="#888">Task Recognition runs in parallel - feeds task info to Context Engine</text>
  <text x="280" y="750" class="box-text" font-size="11" fill="#888">Duration Tracking: elapsed time from SessionAnalytics</text>
  <text x="280" y="770" class="box-text" font-size="11" fill="#888">Fatigue Accumulation: sustained poor posture counter</text>
  <text x="280" y="790" class="box-text" font-size="11" fill="#888">Temporal Smoothing: EWMA (a=0.3) for stable risk levels</text>

  <text x="400" y="855" class="subtitle" font-size="10">ErgoVigilance - Context-Aware Risk Architecture - July 2026</text>
</svg>