<svg xmlns="http://www.w3.org/2000/svg" viewBox="0 0 400 900" font-family="Segoe UI, Arial, sans-serif">
  <defs>
    <linearGradient id="bg" x1="0%" y1="0%" x2="100%" y2="100%"><stop offset="0%" stop-color="#1a1a2e"/><stop offset="100%" stop-color="#16213e"/></linearGradient>
  </defs>
  <rect width="400" height="900" fill="url(#bg)"/>
  <text x="200" y="30" text-anchor="middle" fill="#e0e0ff" font-size="13" font-weight="bold">Executive Dashboard Architecture</text>
<rect x="60" y="54" width="280" height="34" rx="5" fill="#2a2a5e" stroke="#5555aa" stroke-width="1.2" opacity="0.9"/><text x="200" y="75.0" text-anchor="middle" fill="#e0e0ff" font-size="9" font-weight="bold">Camera Stream</text><line x1="200" y1="88" x2="200" y2="92" stroke="#5555aa" stroke-width="1.5"/><rect x="60" y="96" width="280" height="34" rx="5" fill="#2a3a5e" stroke="#5577aa" stroke-width="1.2" opacity="0.9"/><text x="200" y="117.0" text-anchor="middle" fill="#e0e0ff" font-size="9" font-weight="bold">Pose Estimation (MediaPipe)</text><line x1="200" y1="130" x2="200" y2="134" stroke="#5577aa" stroke-width="1.5"/><rect x="60" y="138" width="280" height="34" rx="5" fill="#2a4a3e" stroke="#55aa77" stroke-width="1.2" opacity="0.9"/><text x="200" y="159.0" text-anchor="middle" fill="#e0e0ff" font-size="9" font-weight="bold">Feature Extraction</text><line x1="200" y1="172" x2="200" y2="176" stroke="#55aa77" stroke-width="1.5"/><rect x="60" y="180" width="280" height="34" rx="5" fill="#3a4a2a" stroke="#77aa55" stroke-width="1.2" opacity="0.9"/><text x="200" y="201.0" text-anchor="middle" fill="#e0e0ff" font-size="9" font-weight="bold">Task Recognition</text><line x1="200" y1="214" x2="200" y2="218" stroke="#77aa55" stroke-width="1.5"/><rect x="60" y="222" width="280" height="34" rx="5" fill="#4a3a2a" stroke="#aa7755" stroke-width="1.2" opacity="0.9"/><text x="200" y="243.0" text-anchor="middle" fill="#e0e0ff" font-size="9" font-weight="bold">Context-Aware Risk</text><line x1="200" y1="256" x2="200" y2="260" stroke="#aa7755" stroke-width="1.5"/><rect x="60" y="264" width="280" height="34" rx="5" fill="#4a2a2a" stroke="#aa5555" stroke-width="1.2" opacity="0.9"/><text x="200" y="285.0" text-anchor="middle" fill="#e0e0ff" font-size="9" font-weight="bold">Alert Engine</text><line x1="200" y1="298" x2="200" y2="302" stroke="#aa5555" stroke-width="1.5"/><rect x="60" y="306" width="280" height="34" rx="5" fill="#3a2a4a" stroke="#7755aa" stroke-width="1.2" opacity="0.9"/><text x="200" y="327.0" text-anchor="middle" fill="#e0e0ff" font-size="9" font-weight="bold">Performance Monitor</text><line x1="200" y1="340" x2="200" y2="344" stroke="#7755aa" stroke-width="1.5"/><rect x="60" y="348" width="280" height="48" rx="5" fill="#2a4a4a" stroke="#55aaaa" stroke-width="1.2" opacity="0.9"/><text x="200" y="376.0" text-anchor="middle" fill="#e0e0ff" font-size="9" font-weight="bold">Executive Dashboard</text><line x1="200" y1="396" x2="200" y2="400" stroke="#55aaaa" stroke-width="1.5"/><rect x="60" y="404" width="280" height="34" rx="5" fill="#2a2a4a" stroke="#5555aa" stroke-width="1.2" opacity="0.9"/><text x="200" y="425.0" text-anchor="middle" fill="#e0e0ff" font-size="9" font-weight="bold">Reports & Analytics</text><line x1="200" y1="438" x2="200" y2="442" stroke="#5555aa" stroke-width="1.5"/><rect x="60" y="446" width="280" height="34" rx="5" fill="#3a3a2a" stroke="#888855" stroke-width="1.2" opacity="0.9"/><text x="200" y="467.0" text-anchor="middle" fill="#e0e0ff" font-size="9" font-weight="bold">Management Decisions</text></svg>